<?xml version="1.0" encoding="UTF-8" standalone="no"?>
<!-- Created with Inkscape (http://www.inkscape.org/) -->

<svg
   width="210mm"
   height="148mm"
   viewBox="0 0 793.70081 559.37006"
   version="1.1"
   id="svg1"
   xml:space="preserve"
   sodipodi:docname="logo.svg"
   inkscape:version="1.3.2 (091e20ef0f, 2023-11-25)"
   xmlns:inkscape="http://www.inkscape.org/namespaces/inkscape"
   xmlns:sodipodi="http://sodipodi.sourceforge.net/DTD/sodipodi-0.dtd"
   xmlns="http://www.w3.org/2000/svg"
   xmlns:svg="http://www.w3.org/2000/svg"><sodipodi:namedview
     id="namedview1"
     pagecolor="#ffffff"
     bordercolor="#000000"
     borderopacity="0.25"
     inkscape:showpageshadow="2"
     inkscape:pageopacity="0.0"
     inkscape:pagecheckerboard="0"
     inkscape:deskcolor="#d1d1d1"
     inkscape:document-units="mm"
     inkscape:zoom="1.2246383"
     inkscape:cx="606.30147"
     inkscape:cy="235.57976"
     inkscape:window-width="1276"
     inkscape:window-height="1383"
     inkscape:window-x="0"
     inkscape:window-y="0"
     inkscape:window-maximized="0"
     inkscape:current-layer="text1" /><defs
     id="defs1" /><g
     inkscape:label="Layer 1"
     inkscape:groupmode="layer"
     id="layer1"><path
       id="path1"
       style="fill:none;stroke:#090909;stroke-width:0.863122"
       d="m 398.9726,121.88797 c -2.23251,1.37121 -8.12139,5.16817 -9.19643,8.45541 -0.78552,2.40198 7.10694,4.90382 8.85523,4.35483 4.33017,-1.35973 -1.16436,-10.76708 0.72108,-13.76045 2.13575,-3.39072 5.42585,-6.61616 7.93287,-9.92514 5.36546,-7.08176 10.32656,-14.550141 14.30371,-22.616008 1.56999,-3.183984 5.69147,-10.368692 2.83389,-13.601569 -3.82305,-4.325174 -12.6862,-4.361583 -17.82422,-5.392343 -2.21166,-0.44368 -5.14251,-2.587022 -7.5382,-2.073203 -3.19693,0.685667 -5.3239,4.660065 -8.52248,6.036478 -11.95728,5.145475 -24.09668,10.520934 -35.67083,15.144227 -1.24998,0.499295 -2.17703,1.281388 -3.33989,1.835178 -3.24757,1.546539 -12.76189,5.86179 -15.47847,3.732572 -1.62885,-1.276666 2.64224,-5.916124 4.34182,-6.679411 3.97352,-1.784484 11.74518,-0.106405 14.40079,1.086479 M 392.1769,78.235776 c -4.44531,3.015458 -4.60681,8.096035 -0.32777,11.144142 m 6.88316,-7.986326 c -4.39078,-0.716154 -4.97082,4.285642 -0.98017,4.922015 5.10674,0.814341 7.31972,-3.887975 0.98017,-4.922015 m -62.7345,12.678914 c -6.03437,0 -13.03318,-0.512534 -18.87993,3.808757 -2.56476,1.895595 -4.22075,5.570467 -6.62658,7.007537 -5.4666,3.26537 -11.51534,4.6301 -17.30059,8.05679 -17.30742,10.25146 -35.90797,27.88076 -43.59577,46.90464 -1.19945,2.96807 2.4094,7.88549 4.01576,11.14414 5.40415,10.96277 11.22771,19.75345 21.22496,27.10729 2.33384,1.71674 7.30112,6.2847 10.37546,5.66795 1.60966,-0.3229 0.9608,-2.53932 0.62768,-3.60387 -1.1683,-3.7336 -3.11175,-7.32489 -4.85747,-10.81632 -5.41411,-10.82826 -11.2676,-21.21619 -14.04241,-33.10465 -1.1779,-5.04661 -2.89844,-15.13855 -3.68075,-18.02502 m 148.59251,-33.44457 c 1.62709,2.45695 4.37371,6.93075 3.5754,9.78369 -1.01024,3.61034 -8.91962,1.03293 -11.03207,-0.15448 m -77.0217,6.11145 c -0.75217,3.7687 -3.02662,2.43318 -3.81707,1.24242 -0.70165,-1.05701 -1.23522,-2.89243 -1.53303,-4.51799 -0.61603,-3.36259 -0.018,-7.19103 2.70598,-9.69895 2.02488,-1.86427 4.57605,-1.83963 7.13923,-1.53962 1.70959,0.2001 2.53815,0.3527 5.08045,2.5527 5.00771,5.12098 3.73574,5.91988 3.1138,7.04703 -0.93573,-0.7108 -1.92137,-1.96309 -6.19199,-2.79188 -4.76216,-0.69042 -5.77734,4.09855 -6.49737,7.70629 z m -16.86088,-15.64774 -1.91557,9.09448 m 126.19101,206.4944 c -2.63654,-5.53156 -6.39662,-12.51879 -10.70449,-17.69952 -9.73379,-11.70602 -21.86091,-23.93411 -35.18315,-31.39033 -6.58307,-3.68443 -13.88998,-6.79961 -21.30498,-8.48548 -1.74377,-0.39647 -6.98691,-0.59361 -7.36447,-2.50677 -1.07569,-5.45077 2.35991,-15.12629 2.95691,-20.87682 1.85211,-17.84016 2.67923,-35.01346 10.70433,-52.11521 0.79058,-1.68474 0.81728,-2.63176 1.68202,-4.07327 0.77662,-1.29463 1.70741,-2.11401 2.85097,-3.1817 2.9632,-2.76659 6.22207,-5.67154 9.16415,-8.49966 9.53795,-9.16861 20.57223,-17.71457 30.4825,-26.64102 6.38571,-5.75176 11.129,-12.06383 9.83008,-20.86378 -0.60457,-4.09583 -2.40596,-7.32576 -7.57123,-9.60114 -3.2206,-0.88345 -4.03834,-0.62594 -4.75265,-0.65554 m -75.47485,1.78302 c 1.63626,7.27201 -6.5691,14.80701 -13.30336,6.31943 m 73.62782,-2.59045 c 1.83897,-0.053 16.63607,-1.75952 17.52975,4.74608 0.56682,4.12616 -3.8682,7.62343 -6.44095,10.15319 -8.20622,8.06919 -18.69057,12.02116 -27.93626,16.78718 -5.5295,2.41957 -20.35283,5.74529 -26.97457,1.48221 m 33.12243,-21.98952 c -2.15838,1.14886 -6.51338,3.38108 -7.29101,6.04368 -0.81257,2.7822 1.45578,7.6877 0.48254,10.42062 -1.40943,3.95776 -9.9357,-1.55589 -11.71869,-2.90486 2.52477,-2.54641 9.22583,-6.77419 11.84967,-8.74897 m -11.84967,8.74897 c -3.57128,1.27635 -12.54189,6.0686 -14.42183,8.52199 -3.50226,0.0999 -10.07597,3.2502 -15.07737,3.27644 -3.67648,0.0192 -6.8176,-0.0574 -9.5053,-0.32653 0.1401,-1.23857 0.30254,-1.99321 1.31108,-3.60545 M 89.646218,228.02615 c 0.45492,-2.0671 0.36646,-3.30652 0.32165,-5.89984 -0.085,-4.92177 -1.16464,-10.10441 -2.64264,-14.7496 -4.69363,-14.7517 -17.91438,-22.2798 -24.7876,-35.39904 -2.21564,-4.22906 -4.06007,-14.81534 -8.62586,-16.82796 -3.40389,-1.50045 -6.00387,4.29701 -7.08544,6.66712 -2.73526,5.99403 -4.06014,13.13535 -5.79809,19.99391 l -0.53598,6.14526 c -0.0684,6.12639 -0.12061,13.96219 1.04719,19.42071 4.32445,20.21359 15.64428,38.52793 19.17456,58.67064 2.01674,11.50707 -1.89572,24.15159 -2.80852,35.72681 -0.38343,4.86199 -0.66531,9.32768 -0.71152,14.09406 -0.0178,1.83697 -0.30064,3.25472 -0.30064,4.91653 0,1.46994 0.25027,2.69185 0.29148,4.26099 0.12539,4.7757 0.22754,9.49139 1.00203,14.42183 0.32805,2.08833 0.97575,3.8932 1.37405,5.89984 0.37923,1.91058 0.37135,3.56505 0.91505,5.57208 1.57334,5.80791 3.73517,11.99577 6.50228,17.37175 8.41589,16.35039 21.56989,28.99902 38.400692,36.48994 5.72881,2.54973 11.59525,4.61076 17.69952,5.97193 3.10253,0.69183 6.56797,1.30571 9.17754,1.78693 -1.78689,6.26465 -3.40876,15.20988 -4.01433,22.28828 -1.20113,14.03997 -3.86893,28.00912 -8.64803,41.62665 -1.10526,3.14933 -2.83208,7.42233 -2.3199,10.81585 0.39482,2.61603 2.06922,3.08235 4.3599,4.62979 1.79977,0.37336 3.02575,0.30183 5.70624,-0.70096 3.38411,-1.26598 11.68439,-6.43935 15.07712,-9.17605 11.85548,-9.56312 22.43943,-21.55524 30.16396,-34.74006 4.41296,-7.53237 7.49314,-15.65345 8.86539,-24.2549 0.5758,-3.60914 1.42414,-8.81044 1.42414,-11.19728 M 331.86742,155.917 l 0.32777,2.94991 m -82.59517,1.00842 c -2.17753,3.26648 -8.56458,11.98813 -8.49702,16.71621 0.0551,3.85605 3.38197,10.00903 5.6539,13.41342 7.21096,10.80523 17.42811,18.91661 24.87992,29.4992 4.17246,5.92545 8.47457,11.94926 12.40178,18.02729 0.86097,1.33248 3.34012,4.73513 2.13483,6.21795 -2.12135,2.60983 -13.89037,-4.73349 -16.25432,-6.00582 -9.54193,-5.13568 -21.274,-9.94899 -28.80453,-17.91463 -4.23539,-4.48011 -9.64002,-14.58005 -12.16659,-17.69654 -2.5294,3.92152 -4.08732,9.08209 -5.88994,13.43852 -0.71294,1.72303 -1.99713,3.94319 -1.21134,5.53557 1.82142,3.69099 9.42155,11.61484 13.02329,15.05168 1.33684,1.27565 5.43281,3.54328 4.75653,5.83712 -0.63921,2.16815 -4.61093,1.06809 -6.08977,0.72642 -4.44859,-1.02782 -14.40109,-4.21513 -16.71911,-7.64057 -1.79293,-2.64949 3.86245,-13.45676 4.96674,-16.31228 m 72.06184,-46.46343 c 5.86159,13.13008 13.37471,25.3581 28.5159,29.18938 3.31418,0.83861 6.88955,1.00445 10.16083,0.97118 10.55305,-0.10729 21.87019,-4.82063 30.81028,-10.6155 4.40915,-2.85797 9.22536,-6.9877 12.23224,-8.51292 M 106.6902,232.28715 c -6.5779,6.81798 -11.083612,18.24875 -16.633912,26.22151 -0.88664,1.2736 -4.95918,8.01093 -6.93952,6.71768 -1.42522,-0.93074 0.71395,-5.24296 1.14251,-6.38991 1.95129,-5.22248 4.03633,-10.72911 5.50433,-16.06068 0.56127,-2.03849 1.19952,-5.68904 -2.09045,-5.73027 -2.73382,-0.0343 -4.72708,3.33959 -5.91108,5.40266 -2.9997,5.22696 -4.26043,17.72295 -7.84877,21.30482 -1.71342,-3.29209 -0.9713,-4.84327 -0.70859,-8.19422 0.70795,-9.03019 3.95859,-18.61727 6.00259,-27.53259 0.42851,-1.86901 3.22123,-10.67527 0.43599,-11.30644 -2.36883,-0.53681 -4.4732,5.11938 -5.16679,6.71768 -2.53037,5.83092 -4.50387,20.59704 -7.77412,24.58267 -1.30523,-3.10307 -0.98346,-4.57861 -0.9833,-7.86646 4.4e-4,-8.64578 3.16686,-17.7629 4.97859,-26.54928 0.3695,-1.79204 2.5561,-9.92011 -0.48637,-10.26718 -2.65204,-0.30255 -4.42744,5.13581 -5.13891,6.98949 -2.85486,7.43796 -1.29444,18.11631 -5.58092,24.58267 -2.78083,-4.62013 -2.29438,-11.61355 -2.29438,-16.38845 0,-2.7465 -0.0339,-4.46065 0.006,-6.88314 0.0699,-4.21963 1.14086,-8.52752 2.02259,-12.78299 0.48948,-2.36246 3.23507,-11.67759 0.3887,-12.82468 -2.43142,-0.97987 -3.92026,5.47755 -4.32333,6.92484 -1.41611,5.08494 -2.02743,9.91325 -2.02743,14.7496 0,2.93342 0.53498,6.17133 -0.65554,9.5053 -7.076,-6.03984 -6.68281,-20.39687 -5.57084,-28.18812 0.43088,-3.01914 3.92155,-12.53985 1.60372,-14.79001 -1.53449,-1.48973 -3.70428,2.46774 -4.277,3.6459 -1.94168,3.99429 -2.34963,5.58869 -3.55772,7.39346 m 200.186022,-8.85675 c -0.99297,2.25886 -3.8068,7.01568 -4.89323,9.32971 -2.3278,4.95818 -5.91498,11.18399 -7.15126,16.38844 m 101.28088,0.65554 c -0.12825,2.6388 -3.17475,19.33343 -4.07943,25.2382 -3.00476,19.61197 -5.61336,38.97779 -13.0972,57.68733 -2.44547,6.11363 -8.71578,18.41552 -11.33926,21.96051 l -2.62215,-3.60546 M 149.42901,230.26317 c -1.08998,-2.99033 2.29026,-10.93658 3.1931,-17.31438 0.2778,-1.96236 1.12459,-7.07797 -1.73802,-7.56702 -2.78618,-0.47601 -4.35352,4.34756 -5.18597,6.25594 -3.50963,8.04588 -7.32579,15.54796 -13.03928,22.28824 -0.93901,1.10776 -6.7211,7.76505 -8.49434,6.08697 -1.13171,-1.07097 3.17206,-5.764 3.82014,-6.74247 3.32224,-5.01595 7.23193,-14.8374 4.92707,-20.32166 -7.26921,8.74321 -9.30342,20.74856 -17.3936,29.17138 -1.80232,1.87643 -5.79112,6.93802 -8.76273,6.52677 -2.53677,-0.35107 0.56029,-3.7761 1.16808,-4.56012 3.37203,-4.34977 7.99042,-13.26569 6.49352,-18.91264 -0.79178,-2.98691 -6.56206,5.15217 -7.39901,6.45743 m 109.24816,2.43715 c -6.87192,11.27316 -8.23205,26.77295 -14.64058,38.53396 -6.23489,11.44236 -14.87618,22.20425 -24.13727,31.46581 -14.91358,14.91435 -30.82444,25.95192 -50.80418,32.7769 1.52265,3.41088 7.3122,18.04896 9.34141,25.72985 0.69103,2.61807 2.34768,10.71899 5.70969,9.71087 3.45884,-1.03716 4.403,-9.1574 5.19301,-12.16914 1.56796,-5.97753 2.49686,-12.18802 1.89746,-18.02728 -0.49061,-4.7795 -1.82596,-10.97342 -2.28032,-13.99504 m 65.99643,-85.55744 c 2.52041,3.25094 9.46043,15.2769 13.61926,20.23241 2.73602,3.26014 7.42351,6.8049 8.88965,10.79938 1.5957,4.34742 -8.45283,0.67941 -9.58204,1.99912 -1.66141,1.94169 2.20186,7.39175 3.05587,9.16201 3.2462,6.72897 7.00674,14.18693 9.57396,21.30498 0.76282,2.11509 2.54973,5.94365 1.18845,8.05604 -2.14505,3.32867 -10.92597,-2.50163 -13.28886,-3.72103 -4.63309,-2.39094 -9.05967,-5.40148 -14.09406,-6.91987 -4.60455,-1.38876 -9.59818,-1.1092 -14.09406,-3.01898 -4.35075,-1.84814 -7.47675,-5.41315 -9.83307,-7.83469 m 65.22743,-37.1285 c -2.70503,-0.23851 -3.91436,2.45392 -2.5389,4.67298 1.63444,2.63694 5.59083,5.09917 8.76151,5.15428 2.0047,0.0349 3.37924,-1.43775 2.53463,-3.50951 -1.24276,-3.04837 -5.53314,-6.0335 -8.75724,-6.31775 m 106.85124,5.99046 c -2.52927,4.70317 -3.95186,12.52405 -6.09906,18.02728 -5.68849,14.57952 -13.01848,28.52624 -21.54289,41.29889 -3.38291,5.06879 -11.62884,16.44472 -14.96801,19.33836 -1.56152,-2.56163 -2.58807,-6.31087 -4.13004,-10.16083 -3.04278,-7.59716 -6.92153,-15.25538 -11.60286,-21.96052 M 288.9297,275.55264 c 3.56331,2.44833 8.14061,6.66043 10.22474,10.81637 1.50989,3.01088 2.44891,6.80029 2.50031,10.16084 0.0477,3.12192 -0.30405,5.59614 -1.90868,8.19423 m -34.7435,-17.69952 c -1.23281,4.47279 -2.81382,15.34841 0,17.69952 m -87.441,-0.5372 c 1.64817,2.6637 3.7246,8.96746 5.47874,13.64795 3.75158,10.01016 6.16263,19.41514 6.53314,29.4992 0.0874,2.37874 -0.11545,5.20515 -1.59657,7.53869 -3.34708,-3.4472 -4.71611,-8.66602 -7.81694,-12.45518 -3.96593,-4.84632 -9.4394,-8.28902 -13.8032,-12.78303 -2.93679,-3.02444 -5.56172,-7.78775 -6.47769,-10.05747 M 266.2347,302.59265 c -1.55098,2.83677 -7.06645,11.98757 -8.9503,16.22549 -4.09449,9.21095 -8.23853,20.20789 -6.64548,29.82696 1.46602,8.85209 7.67416,16.63289 12.09337,24.2549 1.18381,2.04176 4.83492,7.00856 3.70836,9.42087 -1.94023,4.15463 -13.4583,7.8462 -17.49875,9.705 -15.63701,7.19375 -31.41486,12.73781 -48.18203,16.80239 -4.12236,0.99927 -14.09862,4.76017 -17.84488,3.03678 -1.86982,-0.86015 -2.98491,-11.02147 -4.11415,-13.36979 3.36924,-2.03627 14.20451,-4.56368 19.66465,-6.74608 14.50113,-5.79605 28.31487,-13.25181 41.29888,-21.90836 4.49732,-2.99839 11.78554,-8.26832 14.42183,-10.7071 m 83.58107,-46.21541 c 4.83121,3.90978 14.64388,6.74948 21.30497,5.91928 8.20028,-1.02204 16.35228,-3.97674 24.58266,-4.63213 8.9598,-0.71348 18.8765,1.09359 27.86036,4.08917 6.54581,2.18263 19.01281,11.14273 23.27159,3.47343 M 88.335138,314.8849 c -2.18667,1.55375 -5.59355,5.01199 -9.1842,7.7081 -1.30216,0.97774 -4.47446,2.61427 -3.66116,4.68835 0.71795,1.83098 3.13837,1.64669 4.65114,1.94669 5.1754,1.02636 11.11341,-0.79382 14.09406,-2.87122 2.22528,3.03467 5.74904,6.2724 8.849762,8.19422 -1.39295,4.02741 -2.77499,15.87885 -3.423772,22.28828 -0.15306,1.51218 -1.21745,7.7341 1.841272,7.43288 4.12846,-0.40657 8.36994,-8.07679 10.24189,-11.3661 2.31315,-4.06461 3.85851,-12.73071 7.26357,-14.78271 1.76638,-1.06447 5.4404,-1.04434 7.6764,-1.27796 m 74.40358,-15.81163 c -5.07332,-1.15068 -4.25011,4.7564 -3.10312,7.6174 2.60627,6.50099 7.05517,12.69878 11.55201,18.02681 1.29721,1.537 3.65471,4.62647 5.8919,4.65454 3.21871,0.0404 -0.21934,-5.94461 -0.86501,-6.94844 -4.40178,-6.84341 -3.62527,-21.11615 -13.47578,-23.35031 m 234.02694,0.40648 -0.32777,0.32777 m -340.570052,4.5872 -3.63506,-6.45917 c -2.62942,-5.21813 -3.67487,-10.13918 -4.59728,-15.172 -1.63732,-8.93345 -3.01794,-20.04882 2.2857,-28.18515 5.55574,-8.5231 20.684432,-13.73349 29.236212,-19.03521 9.25341,-5.73669 18.95236,-11.93905 26.44623,-20.01124 2.06458,-2.22391 3.73561,-4.90807 5.43634,-7.17194 4.35766,-5.80063 7.34688,-12.54013 9.74327,-19.66614 1.78979,-5.32216 8.29808,-19.9833 4.24651,-24.74115 -1.36797,-1.60643 -3.46587,-0.471 -4.90125,0.48737 -4.3113,2.87868 -8.55403,5.94755 -13.11074,8.51646 -13.1629,7.42072 -28.62541,10.5914 -41.29889,18.71975 -4.967742,3.18614 -10.294192,9.5862 -13.438522,12.42271 M 285.65123,333.67267 c -7.10252,-0.27758 -4.99772,17.77999 1.30547,17.60941 5.89876,-0.15965 4.72627,-17.3737 -1.30547,-17.60941 m -166.83151,4.57775 c -1.84228,-0.003 -12.93173,-2.19474 -15.78148,-3.75723 m 214.40735,5.62992 c 0.1639,2.93878 1.3264,6.05176 2.09568,9.83307 1.29025,6.342 2.1314,12.76278 2.16407,19.0106 0.11295,21.60213 -6.14125,45.52258 -19.52411,62.93162 -3.96833,5.1622 -11.40478,15.21501 -18.82312,14.65025 -5.63914,-0.42935 -6.11145,-8.86624 -6.21615,-12.68363 -0.32928,-12.00538 -2.35919,-26.82512 -5.86679,-39.33227 -1.11759,-3.985 -2.46341,-9.10475 -4.30598,-12.12745 m -134.71301,30.15474 c 1.69658,-2.85277 4.5335,-6.80353 6.2276,-10.16084 -2.37138,-0.64209 -12.44437,-1.84656 -17.04398,-2.91963 -12.0845,-2.81924 -23.819582,-8.07731 -33.760202,-15.56722 -8.19102,-6.17163 -15.1517,-13.93912 -20.30574,-22.81203 -3.1497,-5.42233 -5.61657,-12.67142 -7.48951,-14.80944 m 211.248382,4.52306 c -4.07796,-1.95315 -7.41143,9.16948 -3.12769,10.88795 3.79211,1.52125 7.31502,-8.88241 3.12769,-10.88795 m -92.33337,26.01929 c 3.48687,5.04132 4.56749,14.08557 -1.80274,18.02729 0.83202,1.5397 1.16733,2.24933 1.8027,3.60546 m -36.05454,-15.07737 c -2.2294,2.4481 -4.37857,5.65059 -4.23263,9.17752 0.16661,4.02674 4.73516,7.03495 -0.0284,9.83307 m 88.82536,-1.31107 c 2.13857,3.44289 5.16723,13.64309 6.08105,18.68282 2.82787,15.59551 0.24868,30.3928 -5.82305,45.23211 -1.68274,4.11259 -4.21799,12.69804 -9.10792,13.87328 -6.22762,1.49677 -6.63919,-8.32053 -7.29272,-12.23444 -1.86868,-11.19159 -3.85626,-23.76076 -10.45911,-33.10465 -2.77759,-3.93067 -6.34554,-7.46531 -8.98719,-11.47191 -2.14912,-3.25957 -3.08168,-7.36152 -3.08778,-10.48861 m -41.72128,34.78407 c -5.57127,-2.58061 -11.69819,12.08236 -7.05703,14.0008 4.36499,1.80425 12.74281,-11.36716 7.05703,-14.0008 m -14.9983,16.3402 c -3.90474,-0.63309 -6.2449,6.94208 -1.61528,7.45353 3.79305,0.41908 6.05796,-6.73326 1.61528,-7.45353" /><g
       id="text1"
       style="font-weight:bold;font-size:16px;font-family:'Comic Relief';-inkscape-font-specification:'Comic Relief Bold';text-align:end;text-anchor:end;fill:none;stroke:#000000;stroke-width:0.608504"
       aria-label="PLOT&#10;'O'&#10;SAURUS"><path
         style="font-weight:normal;font-size:85.3333px;font-family:'OpenDyslexicAlt Nerd Font';-inkscape-font-specification:'OpenDyslexicAlt Nerd Font, Normal';text-align:center;text-anchor:middle"
         d="m 484.77482,204.07974 h -10.06933 l 2.56,-62.20797 h 18.51733 c 13.99466,0 21.16266,6.4 21.16266,18.60266 0,12.28799 -7.168,19.45599 -21.16266,19.45599 h -10.15466 z m 1.28,-58.62397 -0.85333,23.38132 h 11.43466 c 8.36267,0 13.14133,-4.18133 13.14133,-11.69066 0,-7.50933 -4.77866,-11.69066 -13.14133,-11.69066 z m 81.74932,58.62397 h -38.31465 l 0.85333,-62.20797 h 8.448 l -0.42667,49.32264 h 30.29332 z m 42.15461,-63.3173 c 17.49332,0 28.75732,12.62932 28.75732,32.25598 0,19.62666 -11.264,32.25599 -28.75732,32.25599 -17.49333,0 -28.84266,-12.544 -28.84266,-32.25599 0,-19.62666 11.34933,-32.25598 28.84266,-32.25598 z m 0,6.82666 c -12.20266,0 -19.96799,9.728 -19.96799,25.42932 0,12.88533 7.76533,16.29866 19.96799,16.29866 12.20266,0 19.88266,-3.41333 19.88266,-16.29866 0,-15.70132 -7.68,-25.42932 -19.88266,-25.42932 z m 57.08791,0.512 -22.10133,0.85333 v -7.08266 h 52.65065 v 7.08266 l -22.10133,-0.85333 1.70667,55.97864 h -11.776 z"
         id="path3" /><path
         style="font-weight:normal;font-size:85.3333px;font-family:'OpenDyslexicAlt Nerd Font';-inkscape-font-specification:'OpenDyslexicAlt Nerd Font, Normal';text-align:center;text-anchor:middle"
         d="m 537.80947,271.66371 v -23.12532 h 7.08267 v 23.12532 z m 48.38399,-24.23465 c 17.49333,0 28.75732,12.62933 28.75732,32.25598 0,19.62666 -11.26399,32.25599 -28.75732,32.25599 -17.49333,0 -28.84266,-12.54399 -28.84266,-32.25599 0,-19.62665 11.34933,-32.25598 28.84266,-32.25598 z m 0,6.82666 c -12.20266,0 -19.96799,9.728 -19.96799,25.42932 0,12.88533 7.76533,16.29866 19.96799,16.29866 12.20266,0 19.88266,-3.41333 19.88266,-16.29866 0,-15.70132 -7.68,-25.42932 -19.88266,-25.42932 z m 41.21591,17.40799 v -23.12532 h 7.08267 v 23.12532 z"
         id="path4" /><path
         style="font-weight:normal;font-size:85.3333px;font-family:'OpenDyslexicAlt Nerd Font';-inkscape-font-specification:'OpenDyslexicAlt Nerd Font, Normal';text-align:center;text-anchor:middle"
         d="m 456.8708,365.44501 c -6.31467,-3.072 -11.94666,-4.52267 -17.23733,-4.52267 -9.13066,0 -14.33599,3.66934 -14.33599,10.24 0,5.46133 2.73066,7.936 11.94666,9.64266 l 5.03466,1.024 c 12.544,2.38933 18.34666,8.27733 18.34666,18.43199 0,12.032 -8.19199,18.34666 -23.80799,18.34666 -5.888,0 -12.54399,-1.28 -19.71199,-3.92533 v -13.31199 c 6.82666,3.84 13.39733,5.80266 19.71199,5.80266 9.64266,0 15.01866,-4.69333 15.01866,-8.36266 0,-3.328 -3.49866,-7.25333 -12.03199,-8.96 l -5.12,-1.024 c -12.544,-2.47466 -17.83466,-7.50933 -17.83466,-16.98132 0,-11.008 8.192,-17.74933 21.84532,-17.74933 5.80267,0 11.86133,1.024 18.176,3.15733 z m 27.73331,51.96798 h -11.43466 l 24.57599,-62.20798 h 7.93599 l 24.49066,62.20798 h -12.032 l -2.38933,-10.15467 h -27.98932 z m 5.632,-20.05333 h 22.95465 l -11.51999,-34.47465 z m 46.76257,-42.15465 h 8.87466 l -0.85333,31.99999 c -0.256,13.31199 5.03467,18.77332 15.87199,18.77332 10.752,0 16.04266,-5.46133 15.70133,-18.77332 L 575.74,355.20501 h 8.87466 v 38.82665 c 0,16.21333 -8.10666,24.57599 -23.72266,24.57599 -15.78666,0 -23.89332,-8.36266 -23.89332,-24.57599 z m 89.6853,33.02399 c 3.58399,1.19467 6.91199,5.20533 10.41066,12.20266 l 8.53333,16.98133 h -11.94666 l -6.31467,-15.95733 c -4.096,-8.36266 -7.168,-10.32533 -13.82399,-10.32533 h -6.31467 v 26.28266 h -10.06933 v -62.20798 h 19.02933 c 12.54399,0 19.88266,5.888 19.88266,17.92 0,7.85066 -3.584,13.14132 -9.38666,15.10399 z m -20.224,-28.58666 v 22.86933 h 10.58133 c 6.4,0 13.056,-4.352 13.056,-9.38666 0,-10.66667 -6.656,-13.48267 -13.056,-13.48267 z m 44.97078,-4.43733 h 8.87467 l -0.85334,31.99999 c -0.256,13.31199 5.03467,18.77332 15.872,18.77332 10.75199,0 16.04266,-5.46133 15.70132,-18.77332 l -0.85333,-31.99999 h 8.87466 v 38.82665 c 0,16.21333 -8.10666,24.57599 -23.72265,24.57599 -15.78666,0 -23.89333,-8.36266 -23.89333,-24.57599 z m 100.18131,10.24 c -6.31466,-3.072 -11.94666,-4.52267 -17.23733,-4.52267 -9.13066,0 -14.33599,3.66934 -14.33599,10.24 0,5.46133 2.73066,7.936 11.94666,9.64266 l 5.03467,1.024 c 12.54399,2.38933 18.34665,8.27733 18.34665,18.43199 0,12.032 -8.19199,18.34666 -23.80799,18.34666 -5.88799,0 -12.54399,-1.28 -19.71199,-3.92533 v -13.31199 c 6.82667,3.84 13.39733,5.80266 19.71199,5.80266 9.64267,0 15.01866,-4.69333 15.01866,-8.36266 0,-3.328 -3.49866,-7.25333 -12.03199,-8.96 l -5.12,-1.024 c -12.54399,-2.47466 -17.83466,-7.50933 -17.83466,-16.98132 0,-11.008 8.192,-17.74933 21.84533,-17.74933 5.80266,0 11.86133,1.024 18.17599,3.15733 z"
         id="path5" /></g></g></svg>
